<?xml version="1.0" encoding="utf-8"?>
<!-- Svg Vector Icons : http://www.onlinewebfonts.com/icon -->
<!DOCTYPE svg PUBLIC "-//W3C//DTD SVG 1.1//EN" "http://www.w3.org/Graphics/SVG/1.1/DTD/svg11.dtd">
<svg version="1.1" xmlns="http://www.w3.org/2000/svg" xmlns:xlink="http://www.w3.org/1999/xlink" x="0px" y="0px" viewBox="0 0 256 256" enable-background="new 0 0 256 256" xml:space="preserve">
<metadata> Svg Vector Icons : http://www.onlinewebfonts.com/icon </metadata>
<g><g><g><path stroke-width="8" fill-opacity="0" stroke="#000000"  d="M113.7,10.2C65.3,16.3,25.2,51.5,13.3,98.1c-2.8,11.3-3.3,15.8-3.3,29.9c0,14.3,0.4,18.4,3.6,30.5c10.7,41.3,44.4,74.4,86.2,84.5c40.7,9.8,83.1-2.2,112.3-31.7c17.5-17.7,28.4-39.3,32.9-64.8c1.4-7.9,1.4-28.8,0-37.1c-8.9-52.5-49.4-91.8-101.9-98.9C136.6,9.6,120,9.5,113.7,10.2z M143.5,17.7c45.2,6.4,82.4,40.3,92.7,84.5c3.7,15.9,3.7,35.4-0.1,51.6c-9.3,39.9-42.3,73-82.3,82.3c-16.2,3.7-35.7,3.8-51.6,0.1c-41-9.6-73.7-42.8-82.8-83.8c-2.2-10.3-2.7-16.2-2.4-28.3c0.3-12.6,1.7-20.3,5.5-31.6c13.2-39.6,48-68.7,89.4-74.7C119,16.7,136.3,16.7,143.5,17.7z"/><path stroke-width="8" fill-opacity="0" stroke="#000000"  d="M141,49.5c-1,0.8-1.1,1.8-1.1,33.3c0,31.5,0.1,32.5,1.1,33.3c0.9,0.7,6.4,0.8,33,0.8c37.4,0,34,0.7,33.9-6.6c-0.6-22.4-14.4-43.7-35-54.3c-2.7-1.4-7-3.2-9.6-4C154.1,49,143.3,47.8,141,49.5z M157.6,57.7c20.3,5.1,36.4,21.3,41.5,41.5c0.5,2.1,1.1,5.4,1.3,7.1l0.3,3.2h-26.9h-26.8V82.7V55.8l3.2,0.4C151.9,56.4,155.2,57.1,157.6,57.7z"/><path stroke-width="8" fill-opacity="0" stroke="#000000"  d="M121.3,64.1c-17.7,2.6-29.7,8.5-40.7,20.1c-23.7,24.9-23.7,63.7,0,88.6c25.2,26.6,66.8,27.1,92.3,1.2c11-11,17.2-24.2,18.7-39.7c0.6-5.7,0.6-6.5-0.3-7.8l-0.9-1.4l-29.7-0.1l-29.7-0.2l-0.1-29.6c-0.2-29.3-0.2-29.6-1.3-30.6C128.5,63.8,125.2,63.5,121.3,64.1z M124,101c0.2,16.2,0.5,29.8,0.7,30.1c0.3,0.2,13.8,0.6,30.1,0.7l29.7,0.3l-0.2,2.8c-0.3,4.8-2.7,13.1-5.4,18.5c-7.4,15.3-20.8,26.3-37.6,30.8c-4.7,1.2-6.4,1.4-14,1.4c-7.5,0-9.4-0.2-14.2-1.5c-24.5-6.5-41.7-27.6-43.1-52.9c-1.4-25.4,15.2-49.5,39.4-57.3c4.1-1.3,12.3-2.9,13.7-2.6C123.5,71.3,123.9,81.9,124,101z"/></g></g></g>
</svg>